# Blender 3.6.0
# www.blender.org
mtllib ChargerColliderExperimental2.mtl
o Cube.001
v 1.000000 0.180722 -0.905536
v -1.000000 0.180722 -0.905536
v -1.000000 0.180722 0.857507
v 1.000000 0.180722 0.857507
v 1.000000 0.000360 0.857507
v -1.000000 0.000360 0.857507
v -1.000000 0.000360 -0.905536
v 1.000000 0.000360 -0.905536
vn -0.0000 1.0000 -0.0000
vn -0.0000 -0.0000 1.0000
vn -1.0000 -0.0000 -0.0000
vn -0.0000 -1.0000 -0.0000
vn 1.0000 -0.0000 -0.0000
vn -0.0000 -0.0000 -1.0000
vt 0.625000 0.500000
vt 0.875000 0.500000
vt 0.875000 0.750000
vt 0.625000 0.750000
vt 0.375000 0.750000
vt 0.625000 1.000000
vt 0.375000 1.000000
vt 0.375000 0.000000
vt 0.625000 0.000000
vt 0.625000 0.250000
vt 0.375000 0.250000
vt 0.125000 0.500000
vt 0.375000 0.500000
vt 0.125000 0.750000
s 1
usemtl Material.001
f 1/1/1 2/2/1 3/3/1 4/4/1
f 5/5/2 4/4/2 3/6/2 6/7/2
f 6/8/3 3/9/3 2/10/3 7/11/3
f 7/12/4 8/13/4 5/5/4 6/14/4
f 8/13/5 1/1/5 4/4/5 5/5/5
f 7/11/6 2/10/6 1/1/6 8/13/6
o Cube.002
v 0.018062 1.587740 -0.858122
v 0.016020 1.587740 0.801076
v 0.438399 0.173850 0.801596
v 0.440440 0.173850 -0.857603
v 0.016020 0.173850 0.801076
v 0.018062 0.173850 -0.858122
vn 0.9582 0.2862 0.0012
vn -0.0012 -0.0000 1.0000
vn -0.0000 -1.0000 -0.0000
vn 0.0012 -0.0000 -1.0000
vn -1.0000 -0.0000 -0.0012
vt 0.625000 0.500000
vt 0.875000 0.500000
vt 0.875000 0.750000
vt 0.625000 0.750000
vt 0.625000 0.000000
vt 0.625000 0.250000
vt 0.375000 0.250000
vt 0.125000 0.500000
vt 0.375000 0.500000
vt 0.375000 0.750000
vt 0.125000 0.750000
s 1
usemtl Material.004
f 9/15/7 10/16/7 11/17/7 12/18/7
f 11/19/8 10/20/8 13/21/8
f 13/22/9 14/23/9 12/24/9 11/25/9
f 14/23/10 9/15/10 12/24/10
f 13/21/11 10/20/11 9/15/11 14/23/11
o Cube.005
v 0.295184 3.152760 -0.885566
v -0.322603 3.152760 -0.885566
v -0.322603 3.152760 -0.236116
v 0.295184 3.152760 -0.236116
v 0.295184 2.972396 -0.236116
v -0.322603 2.972396 -0.236116
v -0.322603 2.972396 -0.885566
v 0.295184 2.972396 -0.885566
vn -0.0000 1.0000 -0.0000
vn -0.0000 -0.0000 1.0000
vn -1.0000 -0.0000 -0.0000
vn -0.0000 -1.0000 -0.0000
vn 1.0000 -0.0000 -0.0000
vn -0.0000 -0.0000 -1.0000
vt 0.625000 0.500000
vt 0.875000 0.500000
vt 0.875000 0.750000
vt 0.625000 0.750000
vt 0.375000 0.750000
vt 0.625000 1.000000
vt 0.375000 1.000000
vt 0.375000 0.000000
vt 0.625000 0.000000
vt 0.625000 0.250000
vt 0.375000 0.250000
vt 0.125000 0.500000
vt 0.375000 0.500000
vt 0.125000 0.750000
s 1
usemtl Material.007
f 15/26/12 16/27/12 17/28/12 18/29/12
f 19/30/13 18/29/13 17/31/13 20/32/13
f 20/33/14 17/34/14 16/35/14 21/36/14
f 21/37/15 22/38/15 19/30/15 20/39/15
f 22/38/16 15/26/16 18/29/16 19/30/16
f 21/36/17 16/35/17 15/26/17 22/38/17
o Cube.003
v 0.007403 1.580209 0.823546
v 0.012677 1.580209 -0.835645
v -0.409700 0.166319 -0.836988
v -0.414973 0.166319 0.822203
v 0.012677 0.166319 -0.835645
v 0.007403 0.166319 0.823546
vn -0.9582 0.2862 -0.0030
vn 0.0032 -0.0000 -1.0000
vn -0.0000 -1.0000 -0.0000
vn -0.0032 -0.0000 1.0000
vn 1.0000 -0.0000 0.0032
vt 0.625000 0.500000
vt 0.875000 0.500000
vt 0.875000 0.750000
vt 0.625000 0.750000
vt 0.625000 0.000000
vt 0.625000 0.250000
vt 0.375000 0.250000
vt 0.125000 0.500000
vt 0.375000 0.500000
vt 0.375000 0.750000
vt 0.125000 0.750000
s 1
usemtl Material.008
f 23/40/18 24/41/18 25/42/18 26/43/18
f 25/44/19 24/45/19 27/46/19
f 27/47/20 28/48/20 26/49/20 25/50/20
f 28/48/21 23/40/21 26/49/21
f 27/46/22 24/45/22 23/40/22 28/48/22
o Cube.006
v 0.626119 3.149252 0.915496
v -0.615165 3.149252 0.915496
v -0.615165 3.149252 0.829421
v 0.626119 3.149252 0.829421
v 0.626119 0.010873 0.829422
v -0.615165 0.010873 0.829422
v -0.615165 0.010873 0.915496
v 0.626119 0.010873 0.915496
vn -0.0000 1.0000 -0.0000
vn -0.0000 -0.0000 -1.0000
vn -1.0000 -0.0000 -0.0000
vn -0.0000 -1.0000 -0.0000
vn 1.0000 -0.0000 -0.0000
vn -0.0000 -0.0000 1.0000
vt 0.625000 0.500000
vt 0.875000 0.500000
vt 0.875000 0.750000
vt 0.625000 0.750000
vt 0.375000 0.750000
vt 0.625000 1.000000
vt 0.375000 1.000000
vt 0.375000 0.000000
vt 0.625000 0.000000
vt 0.625000 0.250000
vt 0.375000 0.250000
vt 0.125000 0.500000
vt 0.375000 0.500000
vt 0.125000 0.750000
s 1
usemtl Material.010
f 29/51/23 32/54/23 31/53/23 30/52/23
f 33/55/24 34/57/24 31/56/24 32/54/24
f 34/58/25 35/61/25 30/60/25 31/59/25
f 35/62/26 34/64/26 33/55/26 36/63/26
f 36/63/27 33/55/27 32/54/27 29/51/27
f 35/61/28 36/63/28 29/51/28 30/60/28
o Cube.007
v 0.633738 3.133630 -0.879612
v -0.607545 3.133630 -0.879612
v -0.607545 3.133630 -0.965687
v 0.633738 3.133630 -0.965687
v 0.633738 0.027698 -0.965687
v -0.607545 0.027698 -0.965687
v -0.607545 0.027698 -0.879612
v 0.633738 0.027698 -0.879612
vn -0.0000 1.0000 -0.0000
vn -0.0000 -0.0000 -1.0000
vn -1.0000 -0.0000 -0.0000
vn -0.0000 -1.0000 -0.0000
vn 1.0000 -0.0000 -0.0000
vn -0.0000 -0.0000 1.0000
vt 0.625000 0.500000
vt 0.875000 0.500000
vt 0.875000 0.750000
vt 0.625000 0.750000
vt 0.375000 0.750000
vt 0.625000 1.000000
vt 0.375000 1.000000
vt 0.375000 0.000000
vt 0.625000 0.000000
vt 0.625000 0.250000
vt 0.375000 0.250000
vt 0.125000 0.500000
vt 0.375000 0.500000
vt 0.125000 0.750000
s 1
usemtl Material.012
f 37/65/29 40/68/29 39/67/29 38/66/29
f 41/69/30 42/71/30 39/70/30 40/68/30
f 42/72/31 43/75/31 38/74/31 39/73/31
f 43/76/32 42/78/32 41/69/32 44/77/32
f 44/77/33 41/69/33 40/68/33 37/65/33
f 43/75/34 44/77/34 37/65/34 38/74/34
o Cube.004
v 0.298323 3.154158 0.190531
v -0.319464 3.154158 0.190531
v -0.319464 3.154158 0.839981
v 0.298323 3.154158 0.839981
v 0.298323 2.973794 0.839981
v -0.319464 2.973794 0.839981
v -0.319464 2.973794 0.190531
v 0.298323 2.973794 0.190531
vn -0.0000 1.0000 -0.0000
vn -0.0000 -0.0000 1.0000
vn -1.0000 -0.0000 -0.0000
vn -0.0000 -1.0000 -0.0000
vn 1.0000 -0.0000 -0.0000
vn -0.0000 -0.0000 -1.0000
vt 0.625000 0.500000
vt 0.875000 0.500000
vt 0.875000 0.750000
vt 0.625000 0.750000
vt 0.375000 0.750000
vt 0.625000 1.000000
vt 0.375000 1.000000
vt 0.375000 0.000000
vt 0.625000 0.000000
vt 0.625000 0.250000
vt 0.375000 0.250000
vt 0.125000 0.500000
vt 0.375000 0.500000
vt 0.125000 0.750000
s 1
usemtl Material.013
f 45/79/35 46/80/35 47/81/35 48/82/35
f 49/83/36 48/82/36 47/84/36 50/85/36
f 50/86/37 47/87/37 46/88/37 51/89/37
f 51/90/38 52/91/38 49/83/38 50/92/38
f 52/91/39 45/79/39 48/82/39 49/83/39
f 51/89/40 46/88/40 45/79/40 52/91/40
