# Blender 3.6.0
# www.blender.org
mtllib ChargerColliderExperimental3NoTriangles.mtl
o Cube.001
v 1.000000 0.180722 -0.905536
v -1.000000 0.180722 -0.905536
v -1.000000 0.180722 0.857507
v 1.000000 0.180722 0.857507
v 1.000000 0.000360 0.857507
v -1.000000 0.000360 0.857507
v -1.000000 0.000360 -0.905536
v 1.000000 0.000360 -0.905536
vn -0.0000 1.0000 -0.0000
vn -0.0000 -0.0000 1.0000
vn -1.0000 -0.0000 -0.0000
vn -0.0000 -1.0000 -0.0000
vn 1.0000 -0.0000 -0.0000
vn -0.0000 -0.0000 -1.0000
vt 0.625000 0.500000
vt 0.875000 0.500000
vt 0.875000 0.750000
vt 0.625000 0.750000
vt 0.375000 0.750000
vt 0.625000 1.000000
vt 0.375000 1.000000
vt 0.375000 0.000000
vt 0.625000 0.000000
vt 0.625000 0.250000
vt 0.375000 0.250000
vt 0.125000 0.500000
vt 0.375000 0.500000
vt 0.125000 0.750000
s 1
usemtl Material.001
f 1/1/1 2/2/1 3/3/1 4/4/1
f 5/5/2 4/4/2 3/6/2 6/7/2
f 6/8/3 3/9/3 2/10/3 7/11/3
f 7/12/4 8/13/4 5/5/4 6/14/4
f 8/13/5 1/1/5 4/4/5 5/5/5
f 7/11/6 2/10/6 1/1/6 8/13/6
o Cube.005
v 0.295184 3.152760 -0.885566
v -0.322603 3.152760 -0.885566
v -0.322603 3.152760 -0.236116
v 0.295184 3.152760 -0.236116
v 0.295184 2.972396 -0.236116
v -0.322603 2.972396 -0.236116
v -0.322603 2.972396 -0.885566
v 0.295184 2.972396 -0.885566
vn -0.0000 1.0000 -0.0000
vn -0.0000 -0.0000 1.0000
vn -1.0000 -0.0000 -0.0000
vn -0.0000 -1.0000 -0.0000
vn 1.0000 -0.0000 -0.0000
vn -0.0000 -0.0000 -1.0000
vt 0.625000 0.500000
vt 0.875000 0.500000
vt 0.875000 0.750000
vt 0.625000 0.750000
vt 0.375000 0.750000
vt 0.625000 1.000000
vt 0.375000 1.000000
vt 0.375000 0.000000
vt 0.625000 0.000000
vt 0.625000 0.250000
vt 0.375000 0.250000
vt 0.125000 0.500000
vt 0.375000 0.500000
vt 0.125000 0.750000
s 1
usemtl Material.007
f 9/15/7 10/16/7 11/17/7 12/18/7
f 13/19/8 12/18/8 11/20/8 14/21/8
f 14/22/9 11/23/9 10/24/9 15/25/9
f 15/26/10 16/27/10 13/19/10 14/28/10
f 16/27/11 9/15/11 12/18/11 13/19/11
f 15/25/12 10/24/12 9/15/12 16/27/12
o Cube.006
v 0.626119 3.149252 0.915496
v -0.615165 3.149252 0.915496
v -0.615165 3.149252 0.829421
v 0.626119 3.149252 0.829421
v 0.626119 0.010873 0.829422
v -0.615165 0.010873 0.829422
v -0.615165 0.010873 0.915496
v 0.626119 0.010873 0.915496
vn -0.0000 1.0000 -0.0000
vn -0.0000 -0.0000 -1.0000
vn -1.0000 -0.0000 -0.0000
vn -0.0000 -1.0000 -0.0000
vn 1.0000 -0.0000 -0.0000
vn -0.0000 -0.0000 1.0000
vt 0.625000 0.500000
vt 0.875000 0.500000
vt 0.875000 0.750000
vt 0.625000 0.750000
vt 0.375000 0.750000
vt 0.625000 1.000000
vt 0.375000 1.000000
vt 0.375000 0.000000
vt 0.625000 0.000000
vt 0.625000 0.250000
vt 0.375000 0.250000
vt 0.125000 0.500000
vt 0.375000 0.500000
vt 0.125000 0.750000
s 1
usemtl Material.010
f 17/29/13 20/32/13 19/31/13 18/30/13
f 21/33/14 22/35/14 19/34/14 20/32/14
f 22/36/15 23/39/15 18/38/15 19/37/15
f 23/40/16 22/42/16 21/33/16 24/41/16
f 24/41/17 21/33/17 20/32/17 17/29/17
f 23/39/18 24/41/18 17/29/18 18/38/18
o Cube.007
v 0.633738 3.133630 -0.879612
v -0.607545 3.133630 -0.879612
v -0.607545 3.133630 -0.965687
v 0.633738 3.133630 -0.965687
v 0.633738 0.027698 -0.965687
v -0.607545 0.027698 -0.965687
v -0.607545 0.027698 -0.879612
v 0.633738 0.027698 -0.879612
vn -0.0000 1.0000 -0.0000
vn -0.0000 -0.0000 -1.0000
vn -1.0000 -0.0000 -0.0000
vn -0.0000 -1.0000 -0.0000
vn 1.0000 -0.0000 -0.0000
vn -0.0000 -0.0000 1.0000
vt 0.625000 0.500000
vt 0.875000 0.500000
vt 0.875000 0.750000
vt 0.625000 0.750000
vt 0.375000 0.750000
vt 0.625000 1.000000
vt 0.375000 1.000000
vt 0.375000 0.000000
vt 0.625000 0.000000
vt 0.625000 0.250000
vt 0.375000 0.250000
vt 0.125000 0.500000
vt 0.375000 0.500000
vt 0.125000 0.750000
s 1
usemtl Material.012
f 25/43/19 28/46/19 27/45/19 26/44/19
f 29/47/20 30/49/20 27/48/20 28/46/20
f 30/50/21 31/53/21 26/52/21 27/51/21
f 31/54/22 30/56/22 29/47/22 32/55/22
f 32/55/23 29/47/23 28/46/23 25/43/23
f 31/53/24 32/55/24 25/43/24 26/52/24
o Cube.004
v 0.298323 3.154158 0.190531
v -0.319464 3.154158 0.190531
v -0.319464 3.154158 0.839981
v 0.298323 3.154158 0.839981
v 0.298323 2.973794 0.839981
v -0.319464 2.973794 0.839981
v -0.319464 2.973794 0.190531
v 0.298323 2.973794 0.190531
vn -0.0000 1.0000 -0.0000
vn -0.0000 -0.0000 1.0000
vn -1.0000 -0.0000 -0.0000
vn -0.0000 -1.0000 -0.0000
vn 1.0000 -0.0000 -0.0000
vn -0.0000 -0.0000 -1.0000
vt 0.625000 0.500000
vt 0.875000 0.500000
vt 0.875000 0.750000
vt 0.625000 0.750000
vt 0.375000 0.750000
vt 0.625000 1.000000
vt 0.375000 1.000000
vt 0.375000 0.000000
vt 0.625000 0.000000
vt 0.625000 0.250000
vt 0.375000 0.250000
vt 0.125000 0.500000
vt 0.375000 0.500000
vt 0.125000 0.750000
s 1
usemtl Material.013
f 33/57/25 34/58/25 35/59/25 36/60/25
f 37/61/26 36/60/26 35/62/26 38/63/26
f 38/64/27 35/65/27 34/66/27 39/67/27
f 39/68/28 40/69/28 37/61/28 38/70/28
f 40/69/29 33/57/29 36/60/29 37/61/29
f 39/67/30 34/66/30 33/57/30 40/69/30
