# Blender 3.6.0
# www.blender.org
mtllib ChargerColliderFinal2.mtl
o Cube.001
v 0.890505 0.196838 0.989958
v 0.904859 0.196838 -1.009991
v -0.858139 0.196838 -1.022644
v -0.872492 0.196838 0.977305
v -0.872492 0.016476 0.977305
v -0.858139 0.016476 -1.022644
v 0.904859 0.016476 -1.009991
v 0.890505 0.016476 0.989958
vn -0.0000 1.0000 -0.0000
vn -1.0000 -0.0000 -0.0072
vn 0.0072 -0.0000 -1.0000
vn -0.0000 -1.0000 -0.0000
vn -0.0072 -0.0000 1.0000
vn 1.0000 -0.0000 0.0072
vt 0.625000 0.500000
vt 0.875000 0.500000
vt 0.875000 0.750000
vt 0.625000 0.750000
vt 0.375000 0.750000
vt 0.625000 1.000000
vt 0.375000 1.000000
vt 0.375000 0.000000
vt 0.625000 0.000000
vt 0.625000 0.250000
vt 0.375000 0.250000
vt 0.125000 0.500000
vt 0.375000 0.500000
vt 0.125000 0.750000
s 1
usemtl Material.016
f 1/1/1 2/2/1 3/3/1 4/4/1
f 5/5/2 4/4/2 3/6/2 6/7/2
f 6/8/3 3/9/3 2/10/3 7/11/3
f 7/12/4 8/13/4 5/5/4 6/14/4
f 8/13/5 1/1/5 4/4/5 5/5/5
f 7/11/6 2/10/6 1/1/6 8/13/6
o Cube.002
v 0.850140 1.603856 0.007705
v -0.809001 1.603856 -0.006245
v -0.812552 0.189966 0.416119
v 0.846589 0.189966 0.430069
v -0.809001 0.189966 -0.006245
v 0.850140 0.189966 0.007705
vn -0.0081 0.2862 0.9581
vn -1.0000 -0.0000 -0.0084
vn -0.0000 -1.0000 -0.0000
vn 1.0000 -0.0000 0.0084
vn 0.0084 -0.0000 -1.0000
vt 0.625000 0.500000
vt 0.875000 0.500000
vt 0.875000 0.750000
vt 0.625000 0.750000
vt 0.625000 0.000000
vt 0.625000 0.250000
vt 0.375000 0.250000
vt 0.125000 0.500000
vt 0.375000 0.500000
vt 0.375000 0.750000
vt 0.125000 0.750000
s 1
usemtl Material.017
f 9/15/7 10/16/7 11/17/7 12/18/7
f 11/19/8 10/20/8 13/21/8
f 13/22/9 14/23/9 12/24/9 11/25/9
f 14/23/10 9/15/10 12/24/10
f 13/21/11 10/20/11 9/15/11 14/23/11
o Cube.003
v -0.831408 1.596324 -0.015023
v 0.827702 1.596324 0.002159
v 0.832076 0.182434 -0.420197
v -0.827034 0.182434 -0.437379
v 0.827702 0.182434 0.002159
v -0.831408 0.182434 -0.015023
vn 0.0099 0.2862 -0.9581
vn 0.9999 -0.0000 0.0104
vn -0.0000 -1.0000 -0.0000
vn -0.9999 -0.0000 -0.0104
vn -0.0104 -0.0000 0.9999
vt 0.625000 0.500000
vt 0.875000 0.500000
vt 0.875000 0.750000
vt 0.625000 0.750000
vt 0.625000 0.000000
vt 0.625000 0.250000
vt 0.375000 0.250000
vt 0.125000 0.500000
vt 0.375000 0.500000
vt 0.375000 0.750000
vt 0.125000 0.750000
s 1
usemtl Material.018
f 15/26/12 16/27/12 17/28/12 18/29/12
f 17/30/13 16/31/13 19/32/13
f 19/33/14 20/34/14 18/35/14 17/36/14
f 20/34/15 15/26/15 18/35/15
f 19/32/16 16/31/16 15/26/16 20/34/16
o Cube.004
v -0.200498 3.170273 0.280432
v -0.196064 3.170273 -0.337339
v -0.845498 3.170273 -0.342000
v -0.849931 3.170273 0.275771
v -0.849931 2.989910 0.275771
v -0.845498 2.989910 -0.342000
v -0.196064 2.989910 -0.337339
v -0.200498 2.989910 0.280432
vn -0.0000 1.0000 -0.0000
vn -1.0000 -0.0000 -0.0072
vn 0.0072 -0.0000 -1.0000
vn -0.0000 -1.0000 -0.0000
vn -0.0072 -0.0000 1.0000
vn 1.0000 -0.0000 0.0072
vt 0.625000 0.500000
vt 0.875000 0.500000
vt 0.875000 0.750000
vt 0.625000 0.750000
vt 0.375000 0.750000
vt 0.625000 1.000000
vt 0.375000 1.000000
vt 0.375000 0.000000
vt 0.625000 0.000000
vt 0.625000 0.250000
vt 0.375000 0.250000
vt 0.125000 0.500000
vt 0.375000 0.500000
vt 0.125000 0.750000
s 1
usemtl Material.019
f 21/37/17 22/38/17 23/39/17 24/40/17
f 25/41/18 24/40/18 23/42/18 26/43/18
f 26/44/19 23/45/19 22/46/19 27/47/19
f 27/48/20 28/49/20 25/41/20 26/50/20
f 28/49/21 21/37/21 24/40/21 25/41/21
f 27/47/22 22/46/22 21/37/22 28/49/22
o Cube.005
v 0.875594 3.168875 0.285016
v 0.880028 3.168875 -0.332756
v 0.230594 3.168875 -0.337417
v 0.226160 3.168875 0.280355
v 0.226160 2.988512 0.280355
v 0.230594 2.988512 -0.337417
v 0.880028 2.988512 -0.332756
v 0.875594 2.988512 0.285016
vn -0.0000 1.0000 -0.0000
vn -1.0000 -0.0000 -0.0072
vn 0.0072 -0.0000 -1.0000
vn -0.0000 -1.0000 -0.0000
vn -0.0072 -0.0000 1.0000
vn 1.0000 -0.0000 0.0072
vt 0.625000 0.500000
vt 0.875000 0.500000
vt 0.875000 0.750000
vt 0.625000 0.750000
vt 0.375000 0.750000
vt 0.625000 1.000000
vt 0.375000 1.000000
vt 0.375000 0.000000
vt 0.625000 0.000000
vt 0.625000 0.250000
vt 0.375000 0.250000
vt 0.125000 0.500000
vt 0.375000 0.500000
vt 0.125000 0.750000
s 1
usemtl Material.020
f 29/51/23 30/52/23 31/53/23 32/54/23
f 33/55/24 32/54/24 31/56/24 34/57/24
f 34/58/25 31/59/25 30/60/25 35/61/25
f 35/62/26 36/63/26 33/55/26 34/64/26
f 36/63/27 29/51/27 32/54/27 33/55/27
f 35/61/28 30/60/28 29/51/28 36/63/28
o Cube.006
v -0.927796 3.165367 0.603016
v -0.918888 3.165367 -0.638235
v -0.832815 3.165367 -0.637618
v -0.841724 3.165367 0.603634
v -0.841724 0.026988 0.603635
v -0.832816 0.026988 -0.637617
v -0.918888 0.026988 -0.638234
v -0.927797 0.026988 0.603017
vn -0.0000 1.0000 -0.0000
vn 1.0000 -0.0000 0.0072
vn 0.0072 -0.0000 -1.0000
vn -0.0000 -1.0000 -0.0000
vn -0.0072 -0.0000 1.0000
vn -1.0000 -0.0000 -0.0072
vt 0.625000 0.500000
vt 0.625000 0.750000
vt 0.875000 0.750000
vt 0.875000 0.500000
vt 0.375000 0.750000
vt 0.375000 1.000000
vt 0.625000 1.000000
vt 0.375000 0.000000
vt 0.375000 0.250000
vt 0.625000 0.250000
vt 0.625000 0.000000
vt 0.125000 0.500000
vt 0.125000 0.750000
vt 0.375000 0.500000
s 1
usemtl Material.021
f 37/65/29 40/66/29 39/67/29 38/68/29
f 41/69/30 42/70/30 39/71/30 40/66/30
f 42/72/31 43/73/31 38/74/31 39/75/31
f 43/76/32 42/77/32 41/69/32 44/78/32
f 44/78/33 41/69/33 40/66/33 37/65/33
f 43/73/34 44/78/34 37/65/34 38/74/34
o Cube.007
v 0.867211 3.149746 0.623519
v 0.876120 3.149746 -0.617733
v 0.962192 3.149746 -0.617115
v 0.953283 3.149746 0.624136
v 0.953283 0.043814 0.624137
v 0.962192 0.043814 -0.617114
v 0.876119 0.043814 -0.617732
v 0.867211 0.043814 0.623520
vn -0.0000 1.0000 -0.0000
vn 1.0000 -0.0000 0.0072
vn 0.0072 -0.0000 -1.0000
vn -0.0000 -1.0000 -0.0000
vn -0.0072 -0.0000 1.0000
vn -1.0000 -0.0000 -0.0072
vt 0.625000 0.500000
vt 0.625000 0.750000
vt 0.875000 0.750000
vt 0.875000 0.500000
vt 0.375000 0.750000
vt 0.375000 1.000000
vt 0.625000 1.000000
vt 0.375000 0.000000
vt 0.375000 0.250000
vt 0.625000 0.250000
vt 0.625000 0.000000
vt 0.125000 0.500000
vt 0.125000 0.750000
vt 0.375000 0.500000
s 1
usemtl Material.022
f 45/79/35 48/80/35 47/81/35 46/82/35
f 49/83/36 50/84/36 47/85/36 48/80/36
f 50/86/37 51/87/37 46/88/37 47/89/37
f 51/90/38 50/91/38 49/83/38 52/92/38
f 52/92/39 49/83/39 48/80/39 45/79/39
f 51/87/40 52/92/40 45/79/40 46/88/40
