# Blender 3.6.0
# www.blender.org
mtllib ChargerColliderFinal.mtl
o Cube.001
v 1.287349 0.183745 0.994363
v 1.301703 0.183745 -1.005586
v -0.461295 0.183745 -1.018239
v -0.475648 0.183745 0.981710
v -0.475648 0.003383 0.981710
v -0.461295 0.003383 -1.018239
v 1.301703 0.003383 -1.005586
v 1.287349 0.003383 0.994363
vn -0.0000 1.0000 -0.0000
vn -1.0000 -0.0000 -0.0072
vn 0.0072 -0.0000 -1.0000
vn -0.0000 -1.0000 -0.0000
vn -0.0072 -0.0000 1.0000
vn 1.0000 -0.0000 0.0072
vt 0.625000 0.500000
vt 0.875000 0.500000
vt 0.875000 0.750000
vt 0.625000 0.750000
vt 0.375000 0.750000
vt 0.625000 1.000000
vt 0.375000 1.000000
vt 0.375000 0.000000
vt 0.625000 0.000000
vt 0.625000 0.250000
vt 0.375000 0.250000
vt 0.125000 0.500000
vt 0.375000 0.500000
vt 0.125000 0.750000
s 1
usemtl Material.001
f 1/1/1 2/2/1 3/3/1 4/4/1
f 5/5/2 4/4/2 3/6/2 6/7/2
f 6/8/3 3/9/3 2/10/3 7/11/3
f 7/12/4 8/13/4 5/5/4 6/14/4
f 8/13/5 1/1/5 4/4/5 5/5/5
f 7/11/6 2/10/6 1/1/6 8/13/6
o Cube.002
v 1.246984 1.590763 0.012110
v -0.412157 1.590763 -0.001840
v -0.415708 0.176873 0.420524
v 1.243433 0.176873 0.434474
v -0.412157 0.176873 -0.001840
v 1.246984 0.176873 0.012110
vn -0.0081 0.2862 0.9581
vn -1.0000 -0.0000 -0.0084
vn -0.0000 -1.0000 -0.0000
vn 1.0000 -0.0000 0.0084
vn 0.0084 -0.0000 -1.0000
vt 0.625000 0.500000
vt 0.875000 0.500000
vt 0.875000 0.750000
vt 0.625000 0.750000
vt 0.625000 0.000000
vt 0.625000 0.250000
vt 0.375000 0.250000
vt 0.125000 0.500000
vt 0.375000 0.500000
vt 0.375000 0.750000
vt 0.125000 0.750000
s 1
usemtl Material.004
f 9/15/7 10/16/7 11/17/7 12/18/7
f 11/19/8 10/20/8 13/21/8
f 13/22/9 14/23/9 12/24/9 11/25/9
f 14/23/10 9/15/10 12/24/10
f 13/21/11 10/20/11 9/15/11 14/23/11
o Cube.005
v 1.272438 3.155782 0.289422
v 1.276872 3.155782 -0.328350
v 0.627438 3.155782 -0.333011
v 0.623004 3.155782 0.284761
v 0.623004 2.975419 0.284761
v 0.627438 2.975419 -0.333011
v 1.276872 2.975419 -0.328350
v 1.272438 2.975419 0.289422
vn -0.0000 1.0000 -0.0000
vn -1.0000 -0.0000 -0.0072
vn 0.0072 -0.0000 -1.0000
vn -0.0000 -1.0000 -0.0000
vn -0.0072 -0.0000 1.0000
vn 1.0000 -0.0000 0.0072
vt 0.625000 0.500000
vt 0.875000 0.500000
vt 0.875000 0.750000
vt 0.625000 0.750000
vt 0.375000 0.750000
vt 0.625000 1.000000
vt 0.375000 1.000000
vt 0.375000 0.000000
vt 0.625000 0.000000
vt 0.625000 0.250000
vt 0.375000 0.250000
vt 0.125000 0.500000
vt 0.375000 0.500000
vt 0.125000 0.750000
s 1
usemtl Material.007
f 15/26/12 16/27/12 17/28/12 18/29/12
f 19/30/13 18/29/13 17/31/13 20/32/13
f 20/33/14 17/34/14 16/35/14 21/36/14
f 21/37/15 22/38/15 19/30/15 20/39/15
f 22/38/16 15/26/16 18/29/16 19/30/16
f 21/36/17 16/35/17 15/26/17 22/38/17
o Cube.003
v -0.434564 1.583231 -0.010618
v 1.224546 1.583231 0.006564
v 1.228920 0.169341 -0.415792
v -0.430190 0.169341 -0.432974
v 1.224546 0.169341 0.006564
v -0.434564 0.169341 -0.010618
vn 0.0099 0.2862 -0.9581
vn 0.9999 -0.0000 0.0104
vn -0.0000 -1.0000 -0.0000
vn -0.9999 -0.0000 -0.0104
vn -0.0104 -0.0000 0.9999
vt 0.625000 0.500000
vt 0.875000 0.500000
vt 0.875000 0.750000
vt 0.625000 0.750000
vt 0.625000 0.000000
vt 0.625000 0.250000
vt 0.375000 0.250000
vt 0.125000 0.500000
vt 0.375000 0.500000
vt 0.375000 0.750000
vt 0.125000 0.750000
s 1
usemtl Material.008
f 23/40/18 24/41/18 25/42/18 26/43/18
f 25/44/19 24/45/19 27/46/19
f 27/47/20 28/48/20 26/49/20 25/50/20
f 28/48/21 23/40/21 26/49/21
f 27/46/22 24/45/22 23/40/22 28/48/22
o Cube.006
v -0.530952 3.152274 0.607422
v -0.522044 3.152274 -0.633829
v -0.435971 3.152274 -0.633212
v -0.444880 3.152274 0.608040
v -0.444880 0.013895 0.608040
v -0.435972 0.013895 -0.633212
v -0.522044 0.013895 -0.633829
v -0.530953 0.013895 0.607422
vn -0.0000 1.0000 -0.0000
vn 1.0000 -0.0000 0.0072
vn 0.0072 -0.0000 -1.0000
vn -0.0000 -1.0000 -0.0000
vn -0.0072 -0.0000 1.0000
vn -1.0000 -0.0000 -0.0072
vt 0.625000 0.500000
vt 0.875000 0.500000
vt 0.875000 0.750000
vt 0.625000 0.750000
vt 0.375000 0.750000
vt 0.625000 1.000000
vt 0.375000 1.000000
vt 0.375000 0.000000
vt 0.625000 0.000000
vt 0.625000 0.250000
vt 0.375000 0.250000
vt 0.125000 0.500000
vt 0.375000 0.500000
vt 0.125000 0.750000
s 1
usemtl Material.010
f 29/51/23 32/54/23 31/53/23 30/52/23
f 33/55/24 34/57/24 31/56/24 32/54/24
f 34/58/25 35/61/25 30/60/25 31/59/25
f 35/62/26 34/64/26 33/55/26 36/63/26
f 36/63/27 33/55/27 32/54/27 29/51/27
f 35/61/28 36/63/28 29/51/28 30/60/28
o Cube.007
v 1.264055 3.136653 0.627925
v 1.272964 3.136653 -0.613327
v 1.359036 3.136653 -0.612709
v 1.350127 3.136653 0.628542
v 1.350127 0.030721 0.628542
v 1.359036 0.030721 -0.612709
v 1.272963 0.030721 -0.613327
v 1.264055 0.030721 0.627925
vn -0.0000 1.0000 -0.0000
vn 1.0000 -0.0000 0.0072
vn 0.0072 -0.0000 -1.0000
vn -0.0000 -1.0000 -0.0000
vn -0.0072 -0.0000 1.0000
vn -1.0000 -0.0000 -0.0072
vt 0.625000 0.500000
vt 0.875000 0.500000
vt 0.875000 0.750000
vt 0.625000 0.750000
vt 0.375000 0.750000
vt 0.625000 1.000000
vt 0.375000 1.000000
vt 0.375000 0.000000
vt 0.625000 0.000000
vt 0.625000 0.250000
vt 0.375000 0.250000
vt 0.125000 0.500000
vt 0.375000 0.500000
vt 0.125000 0.750000
s 1
usemtl Material.012
f 37/65/29 40/68/29 39/67/29 38/66/29
f 41/69/30 42/71/30 39/70/30 40/68/30
f 42/72/31 43/75/31 38/74/31 39/73/31
f 43/76/32 42/78/32 41/69/32 44/77/32
f 44/77/33 41/69/33 40/68/33 37/65/33
f 43/75/34 44/77/34 37/65/34 38/74/34
o Cube.004
v 0.196346 3.157180 0.284838
v 0.200780 3.157180 -0.332933
v -0.448654 3.157180 -0.337594
v -0.453087 3.157180 0.280177
v -0.453087 2.976817 0.280177
v -0.448654 2.976817 -0.337594
v 0.200780 2.976817 -0.332933
v 0.196346 2.976817 0.284838
vn -0.0000 1.0000 -0.0000
vn -1.0000 -0.0000 -0.0072
vn 0.0072 -0.0000 -1.0000
vn -0.0000 -1.0000 -0.0000
vn -0.0072 -0.0000 1.0000
vn 1.0000 -0.0000 0.0072
vt 0.625000 0.500000
vt 0.875000 0.500000
vt 0.875000 0.750000
vt 0.625000 0.750000
vt 0.375000 0.750000
vt 0.625000 1.000000
vt 0.375000 1.000000
vt 0.375000 0.000000
vt 0.625000 0.000000
vt 0.625000 0.250000
vt 0.375000 0.250000
vt 0.125000 0.500000
vt 0.375000 0.500000
vt 0.125000 0.750000
s 1
usemtl Material.013
f 45/79/35 46/80/35 47/81/35 48/82/35
f 49/83/36 48/82/36 47/84/36 50/85/36
f 50/86/37 47/87/37 46/88/37 51/89/37
f 51/90/38 52/91/38 49/83/38 50/92/38
f 52/91/39 45/79/39 48/82/39 49/83/39
f 51/89/40 46/88/40 45/79/40 52/91/40
