# Blender 3.6.0
# www.blender.org
mtllib PolarizerCollider2.mtl
o Cube
v 1.148299 4.150000 -1.164923
v 1.148299 0.150000 -1.164923
v -1.169850 4.150000 1.153308
v -1.169850 0.150000 1.153308
v -1.169891 4.150000 -1.164882
v -1.169891 0.150000 -1.164882
vn -0.0000 1.0000 -0.0000
vn -1.0000 -0.0000 -0.0000
vn -0.0000 -0.0000 -1.0000
vn -0.0000 -1.0000 -0.0000
vn 0.7071 -0.0000 0.7071
vt 0.875000 0.500000
vt 0.875000 0.750000
vt 0.625000 0.750000
vt 0.375000 0.750000
vt 0.625000 1.000000
vt 0.375000 1.000000
vt 0.375000 0.000000
vt 0.625000 0.000000
vt 0.625000 0.250000
vt 0.375000 0.250000
vt 0.375000 0.500000
vt 0.125000 0.750000
vt 0.625000 0.500000
s 0
usemtl Material.010
f 1/1/1 5/2/1 3/3/1
f 4/4/2 3/3/2 5/5/2 6/6/2
f 6/7/3 5/8/3 1/9/3 2/10/3
f 2/11/4 4/4/4 6/12/4
f 2/11/5 1/13/5 3/3/5 4/4/5
o Cube.001
v 0.894778 0.180722 0.994177
v 0.894742 0.180722 -1.005823
v -0.868301 0.180722 -1.005792
v -0.868265 0.180722 0.994208
v -0.868265 0.000360 0.994208
v -0.868301 0.000360 -1.005792
v 0.894742 0.000360 -1.005823
v 0.894778 0.000360 0.994177
vn -0.0000 1.0000 -0.0000
vn -1.0000 -0.0000 -0.0000
vn -0.0000 -0.0000 -1.0000
vn -0.0000 -1.0000 -0.0000
vn -0.0000 -0.0000 1.0000
vn 1.0000 -0.0000 -0.0000
vt 0.625000 0.500000
vt 0.875000 0.500000
vt 0.875000 0.750000
vt 0.625000 0.750000
vt 0.375000 0.750000
vt 0.625000 1.000000
vt 0.375000 1.000000
vt 0.375000 0.000000
vt 0.625000 0.000000
vt 0.625000 0.250000
vt 0.375000 0.250000
vt 0.125000 0.500000
vt 0.375000 0.500000
vt 0.125000 0.750000
s 1
usemtl Material.011
f 7/14/6 8/15/6 9/16/6 10/17/6
f 11/18/7 10/17/7 9/19/7 12/20/7
f 12/21/8 9/22/8 8/23/8 13/24/8
f 13/25/9 14/26/9 11/18/9 12/27/9
f 14/26/10 7/14/10 10/17/10 11/18/10
f 13/24/11 8/23/11 7/14/11 14/26/11
o Cube.005
v 1.141666 0.395721 1.150118
v 1.141666 0.001231 1.150118
v -1.163176 0.395721 1.150159
v -1.163176 0.001231 1.150159
v 1.141625 0.395721 -1.161774
v 1.141625 0.001231 -1.161774
v -1.163217 0.395721 -1.161733
v -1.163217 0.001231 -1.161733
vn -1.0000 -0.0000 -0.0000
vn -0.0000 -0.0000 -1.0000
vn -0.0000 -1.0000 -0.0000
vn -0.0000 -0.0000 1.0000
vn 1.0000 -0.0000 -0.0000
vn -0.0000 1.0000 -0.0000
vt 0.375000 0.750000
vt 0.625000 0.750000
vt 0.625000 1.000000
vt 0.375000 1.000000
vt 0.375000 0.000000
vt 0.625000 0.000000
vt 0.625000 0.250000
vt 0.375000 0.250000
vt 0.125000 0.500000
vt 0.375000 0.500000
vt 0.125000 0.750000
vt 0.625000 0.500000
s 0
usemtl Material.015
f 18/28/12 17/29/12 21/30/12 22/31/12
f 22/32/13 21/33/13 19/34/13 20/35/13
f 20/36/14 16/37/14 18/28/14 22/38/14
f 16/37/15 15/39/15 17/29/15 18/28/15
f 20/35/16 19/34/16 15/39/16 16/37/16
f 21/30/17 17/29/17 15/39/17 19/34/17
