# Blender 3.6.0
# www.blender.org
mtllib SentryColliderWithTopAndBottom.mtl
o Cube.001
v 1.000000 0.180722 -0.905536
v -1.000000 0.180722 -0.905536
v -1.000000 0.180722 0.857507
v 1.000000 0.180722 0.857507
v 1.000000 0.000360 0.857507
v -1.000000 0.000360 0.857507
v -1.000000 0.000360 -0.905536
v 1.000000 0.000360 -0.905536
vn -0.0000 1.0000 -0.0000
vn -0.0000 -0.0000 1.0000
vn -1.0000 -0.0000 -0.0000
vn -0.0000 -1.0000 -0.0000
vn 1.0000 -0.0000 -0.0000
vn -0.0000 -0.0000 -1.0000
vt 0.625000 0.500000
vt 0.875000 0.500000
vt 0.875000 0.750000
vt 0.625000 0.750000
vt 0.375000 0.750000
vt 0.625000 1.000000
vt 0.375000 1.000000
vt 0.375000 0.000000
vt 0.625000 0.000000
vt 0.625000 0.250000
vt 0.375000 0.250000
vt 0.125000 0.500000
vt 0.375000 0.500000
vt 0.125000 0.750000
s 1
usemtl Material.001
f 1/1/1 2/2/1 3/3/1 4/4/1
f 5/5/2 4/4/2 3/6/2 6/7/2
f 6/8/3 3/9/3 2/10/3 7/11/3
f 7/12/4 8/13/4 5/5/4 6/14/4
f 8/13/5 1/1/5 4/4/5 5/5/5
f 7/11/6 2/10/6 1/1/6 8/13/6
o Cube.002
v 1.000000 2.542235 0.856587
v -1.000000 2.542235 0.856587
v -1.000000 0.005059 1.278966
v 1.000000 0.005059 1.278966
v -1.000000 0.005059 0.856587
v 1.000000 0.005059 0.856587
vn -0.0000 0.1642 0.9864
vn -1.0000 -0.0000 -0.0000
vn -0.0000 -1.0000 -0.0000
vn 1.0000 -0.0000 -0.0000
vn -0.0000 -0.0000 -1.0000
vt 0.625000 0.500000
vt 0.875000 0.500000
vt 0.875000 0.750000
vt 0.625000 0.750000
vt 0.625000 0.000000
vt 0.625000 0.250000
vt 0.375000 0.250000
vt 0.125000 0.500000
vt 0.375000 0.500000
vt 0.375000 0.750000
vt 0.125000 0.750000
s 1
usemtl Material.002
f 9/15/7 10/16/7 11/17/7 12/18/7
f 11/19/8 10/20/8 13/21/8
f 13/22/9 14/23/9 12/24/9 11/25/9
f 14/23/10 9/15/10 12/24/10
f 13/21/11 10/20/11 9/15/11 14/23/11
o Cube.003
v -1.005481 2.542111 -0.909857
v 0.994518 2.542111 -0.912329
v 0.993995 0.004935 -1.334708
v -1.006003 0.004935 -1.332236
v 0.994518 0.004935 -0.912330
v -1.005481 0.004935 -0.909858
vn -0.0012 0.1642 -0.9864
vn 1.0000 -0.0000 -0.0012
vn -0.0000 -1.0000 -0.0000
vn -1.0000 -0.0000 0.0012
vn 0.0012 -0.0000 1.0000
vt 0.625000 0.500000
vt 0.875000 0.500000
vt 0.875000 0.750000
vt 0.625000 0.750000
vt 0.625000 0.000000
vt 0.625000 0.250000
vt 0.375000 0.250000
vt 0.125000 0.500000
vt 0.375000 0.500000
vt 0.375000 0.750000
vt 0.125000 0.750000
s 1
usemtl Material.003
f 15/26/12 16/27/12 17/28/12 18/29/12
f 17/30/13 16/31/13 19/32/13
f 19/33/14 20/34/14 18/35/14 17/36/14
f 20/34/15 15/26/15 18/35/15
f 19/32/16 16/31/16 15/26/16 20/34/16
o Cube.004
v 0.989517 2.491640 -0.900779
v -1.010483 2.491640 -0.900779
v -1.010483 2.491640 0.862264
v 0.989517 2.491640 0.862264
v 0.989517 2.311277 0.862264
v -1.010483 2.311277 0.862264
v -1.010483 2.311277 -0.900779
v 0.989517 2.311277 -0.900779
vn -0.0000 1.0000 -0.0000
vn -0.0000 -0.0000 1.0000
vn -1.0000 -0.0000 -0.0000
vn -0.0000 -1.0000 -0.0000
vn 1.0000 -0.0000 -0.0000
vn -0.0000 -0.0000 -1.0000
vt 0.625000 0.500000
vt 0.875000 0.500000
vt 0.875000 0.750000
vt 0.625000 0.750000
vt 0.375000 0.750000
vt 0.625000 1.000000
vt 0.375000 1.000000
vt 0.375000 0.000000
vt 0.625000 0.000000
vt 0.625000 0.250000
vt 0.375000 0.250000
vt 0.125000 0.500000
vt 0.375000 0.500000
vt 0.125000 0.750000
s 1
usemtl Material.004
f 21/37/17 22/38/17 23/39/17 24/40/17
f 25/41/18 24/40/18 23/42/18 26/43/18
f 26/44/19 23/45/19 22/46/19 27/47/19
f 27/48/20 28/49/20 25/41/20 26/50/20
f 28/49/21 21/37/21 24/40/21 25/41/21
f 27/47/22 22/46/22 21/37/22 28/49/22
